# xmcd CD database file
#
# Track frame offsets:
#	150
#	12967
#	41636
#	61552
#	81281
#	104254
#	129786
#	157872
#	182385
#	202517
#	218547
#	237708
#	260026
#	280358
#	295948
#	314680
#
# Disc length: 4375 seconds
#
# Revision: 1
# Processed by: cddbd v1.5.1PL0 Copyright (c) Steve Scherf et al.
# Submitted via: CDex 1.51
#
DISCID=d6111510
DTITLE=Salsa Metallica - Volvio Con Todos Los Hieros
DYEAR=1900
DGENRE=Salsa
TTITLE0=Richie Ray y Bobby Cruz - Los Caraquenas
TTITLE1=Roberto Roena y su Apollo - Regano El Corazon
TTITLE2=Tommy Olivencia - El Negro Chombo
TTITLE3=Hector Lavoe - Vo So
TTITLE4=Orq. HarLow - Donde Vas Chichi
TTITLE5=Celia Cruz - Toro Mata
TTITLE6=Cheo Feliciano - Periodico De Siempre
TTITLE7=Ismael Miranda - Cipriano Armenteros
TTITLE8=Charlie Palmieri y Vitin Aviles - La Hija de Lola
TTITLE9=Ruben Blades - Para Ser Rumbero
TTITLE10=Justo Betancourt - Da Tu Cara A Tu Vida
TTITLE11=Hector Lavoe y Willie Colon - Todo Tiene su Final
TTITLE12=Tommy Olivencia - Plante Bandera
TTITLE13=Ismael Rivera - La Soledad
TTITLE14=Richie Ray y Bobby Cruz - Cobo E
TTITLE15=Pete Conde Rodriguez - Convergencia
EXTD=
EXTT0=
EXTT1=
EXTT2=
EXTT3=
EXTT4=
EXTT5=
EXTT6=
EXTT7=
EXTT8=
EXTT9=
EXTT10=
EXTT11=
EXTT12=
EXTT13=
EXTT14=
EXTT15=
PLAYORDER=
